<svg width="47" height="53" viewBox="0 0 47 53" fill="none" xmlns="http://www.w3.org/2000/svg">
<path fill-rule="evenodd" clip-rule="evenodd" d="M3.15159 22.8979C3.15159 22.8979 -4.98371 10.6602 4.88689 5.00979C24.3253 -6.11776 57.7253 1.28984 42.3875 27.2517C37.3257 35.8193 21.0874 24.6777 23.7823 30.2395C24.6411 32.0135 29.9013 34.3045 30.8927 38.1352C31.6617 41.1032 30.8927 45.2042 26.9304 50.4976C26.9304 50.4976 24.6546 55.0575 23.2041 51.867C19.9294 44.6645 21.0164 39.4158 13.2605 34.1503C-0.576009 24.7574 10.4551 20.8438 28.6216 20.8438C34.0338 20.8438 32.4512 13.5516 25.9132 13.2614C21.6762 13.0735 9.14972 11.7142 7.163 18.1208C5.97285 21.9588 4.22405 24.4903 3.15159 22.8979Z" fill="#E5E5E5"/>
</svg>
